<mxfile host="app.diagrams.net" modified="2023-07-17T14:50:33.001Z" agent="Mozilla/5.0 (Macintosh; Intel Mac OS X 10_15_7) AppleWebKit/537.36 (KHTML, like Gecko) Chrome/114.0.0.0 Safari/537.36" version="21.6.2" etag="Vh9YBYBt5_rmF_U74KnT" type="github">
  <diagram name="Page-1" id="JgcS5UEyZBvLc1xOo19J">
    <mxGraphModel>
      <root>
        <mxCell id="0" />
        <mxCell id="1" parent="0" />
      </root>
    </mxGraphModel>
  </diagram>
</mxfile>
